<svg width="37" height="50" viewBox="0 0 37 50" xmlns="http://www.w3.org/2000/svg">
    <g fill-rule="nonzero" fill="none">
        <path d="M17.497 33.572a1.39 1.39 0 0 0 2.007 0l6.08-6.257a1.49 1.49 0 0 0 0-2.066 1.39 1.39 0 0 0-2.007 0l-3.658 3.765V18.46c0-.806-.635-1.46-1.419-1.46s-1.42.654-1.42 1.46v10.554l-3.657-3.765a1.391 1.391 0 0 0-2.007 0 1.49 1.49 0 0 0 0 2.066l6.08 6.257zM24.58 37H12.42c-.784 0-1.42.671-1.42 1.5 0 .828.636 1.5 1.42 1.5h12.16c.784 0 1.42-.672 1.42-1.5 0-.829-.635-1.5-1.42-1.5z" fill="#3448CC"/>
        <path d="M32.452 0H10.75c-.384 0-.752.154-1.024.43L.424 9.842A1.474 1.474 0 0 0 0 10.88v34.518C0 47.935 2.04 50 4.548 50h27.904c2.5 0 4.548-2.046 4.548-4.603V4.603C37 2.073 34.979 0 32.452 0zm-21.6 3.432V9.31c0 .923-.742 1.673-1.654 1.673H3.391l7.46-7.55zm23.253 41.965c0 .912-.727 1.673-1.653 1.673H4.548c-.912 0-1.653-.75-1.653-1.673V13.913h6.303c2.508 0 4.548-2.065 4.548-4.603V2.93h18.706c.901 0 1.653.737 1.653 1.673v40.794z" fill="#D4D4D4"/>
    </g>
</svg>
