<?xml version="1.0" encoding="UTF-8" standalone="no"?>
<!-- Created with Inkscape (http://www.inkscape.org/) -->

<svg version="1.1" id="svg2" width="793.70135" height="351.85333" viewBox="0 0 793.70135 351.85333"
  sodipodi:docname="near solution_Logo.ai" xmlns:inkscape="http://www.inkscape.org/namespaces/inkscape"
  xmlns:sodipodi="http://sodipodi.sourceforge.net/DTD/sodipodi-0.dtd" xmlns="http://www.w3.org/2000/svg"
  xmlns:svg="http://www.w3.org/2000/svg">
  <defs id="defs6">
    <clipPath clipPathUnits="userSpaceOnUse" id="clipPath16">
      <path d="M 0,263.89 H 595.276 V 0 H 0 Z" id="path14" />
    </clipPath>
  </defs>
  <sodipodi:namedview id="namedview4" pagecolor="#ffffff" bordercolor="#000000" borderopacity="0.25"
    inkscape:showpageshadow="2" inkscape:pageopacity="0.0" inkscape:pagecheckerboard="0" inkscape:deskcolor="#d1d1d1" />
  <g id="g8" inkscape:groupmode="layer" inkscape:label="near solution_Logo"
    transform="matrix(1.3333333,0,0,-1.3333333,0,351.85333)">
    <g id="g10">
      <g id="g12" clip-path="url(#clipPath16)">
        <g id="g18" transform="translate(66.4668,144.9201)">
          <path
            d="m 0,0 19.835,-11.452 c 0.848,-0.489 1.892,-0.488 2.739,0.002 0.551,0.319 1.103,0.638 1.655,0.958 0.274,0.158 0.548,0.316 0.821,0.475 0.934,0.539 0.933,1.887 -0.001,2.426 -5.87,3.389 -11.741,6.778 -17.612,10.168 l 0.448,0.258 16.939,9.779 c 3.24,1.871 7.263,1.865 10.497,-0.003 L 48.437,5.038 c 0.005,-0.003 0.009,-0.005 0.013,-0.007 0.835,-0.45 1.841,-0.446 2.662,0.029 l 2.457,1.421 c 0.903,0.523 0.939,1.817 0.064,2.387 -0.986,0.642 -1.843,1.122 -2.299,1.367 l -13.036,7.53 C 33.229,20.69 26.925,20.696 21.85,17.768 L 1.75,6.164 0.059,5.188 C -0.702,4.749 -1.265,4.015 -1.432,3.153 -1.679,1.879 -1.086,0.627 0,0"
            style="fill:#2e49d3;fill-opacity:1;fill-rule:nonzero;stroke:none" id="path20" />
        </g>
        <g id="g22" transform="translate(126.5955,148.4246)">
          <path
            d="m 0,0 c -0.347,0.745 -1.26,1.031 -1.972,0.619 l -2.757,-1.595 c -0.617,-0.357 -0.862,-1.117 -0.582,-1.772 0.537,-1.257 0.837,-2.758 0.786,-4.598 v -19.658 l -20.47,11.818 c -1.303,0.753 -2.909,0.751 -4.21,-0.004 l -1.82,-1.055 c -1.297,-0.752 -2.095,-2.137 -2.095,-3.636 v -23.278 c 1.939,-0.571 4.011,-0.571 5.95,0 v 22.358 l 19.658,-11.35 v 0 0 l -17.384,-10.034 c -0.724,-0.419 -1.488,-0.743 -2.274,-0.974 -1.939,-0.571 -4.011,-0.571 -5.95,0 -0.786,0.231 -1.55,0.555 -2.275,0.974 l -19.935,11.508 c -0.324,0.187 -0.597,0.461 -0.747,0.803 -0.208,0.476 -0.666,0.812 -1.211,0.84 l -3.181,0.159 c -0.828,0.041 -1.504,-0.64 -1.47,-1.468 0.029,-0.734 0.117,-1.491 0.272,-2.269 0.013,-0.069 0.027,-0.138 0.042,-0.208 0.179,-0.775 0.665,-1.478 1.409,-1.907 l 2.771,-1.6 19.075,-11.012 c 2.537,-1.464 5.381,-2.196 8.225,-2.196 2.844,0 5.688,0.732 8.224,2.196 l 21.847,12.612 c 0.04,0.023 0.079,0.048 0.117,0.073 0,0 0,0 0,-10e-4 0.388,0.249 0.725,0.591 0.972,1.017 0.266,0.461 0.393,0.962 0.397,1.459 H 1.425 V -7.428 C 1.507,-4.449 0.936,-2.012 0,0"
            style="fill:#2e49d3;fill-opacity:1;fill-rule:nonzero;stroke:none" id="path24" />
        </g>
        <g id="g26" transform="translate(190.748,108.2546)">
          <path
            d="M 0,0 H -10.182 L -20.887,28.27 -25.809,0 H -36.33 l 7.752,44.789 h 10.275 l 10.674,-28.27 4.891,28.27 H 7.783 Z"
            style="fill:#3448cc;fill-opacity:1;fill-rule:nonzero;stroke:none" id="path28" />
        </g>
        <g id="g30" transform="translate(216.188,134.1559)">
          <path
            d="M 0,0 C -1.436,0.041 -2.682,-0.408 -3.738,-1.347 -4.794,-2.286 -5.711,-3.857 -6.491,-6.06 H 3.63 l 0.184,0.888 c 0.124,0.714 0.144,1.387 0.062,2.019 C 3.527,-1.112 2.235,-0.062 0,0 m -2.461,-26.517 c -2.974,0.021 -5.624,0.723 -7.952,2.108 -2.328,1.384 -4.087,3.311 -5.275,5.783 -1.19,2.471 -1.662,5.193 -1.416,8.167 l 0.093,0.861 c 0.553,5.476 2.455,9.808 5.706,12.997 3.25,3.189 7.234,4.722 11.951,4.599 2.85,-0.041 5.291,-0.765 7.321,-2.172 2.031,-1.407 3.517,-3.348 4.461,-5.823 0.943,-2.475 1.25,-5.252 0.923,-8.333 l -0.585,-4.221 h -19.81 c 0.041,-1.743 0.533,-3.158 1.476,-4.245 0.943,-1.087 2.318,-1.661 4.122,-1.723 2.933,-0.082 5.568,1.046 7.906,3.384 l 4.245,-5.614 c -1.251,-1.779 -2.999,-3.175 -5.245,-4.188 -2.246,-1.011 -4.702,-1.538 -7.367,-1.58 z"
            style="fill:#3448cc;fill-opacity:1;fill-rule:nonzero;stroke:none" id="path32" />
        </g>
        <g id="g34" transform="translate(243.7505,114.9606)">
          <path
            d="M 0,0 C 2.071,-0.082 3.886,0.831 5.445,2.738 L 6.46,8.09 3.845,8.121 C 2.225,8.08 0.831,7.603 -0.338,6.69 -1.507,5.778 -2.195,4.532 -2.399,2.953 -2.502,2.112 -2.343,1.42 -1.922,0.877 -1.502,0.333 -0.861,0.041 0,0 m 5.783,-6.706 c -0.287,0.8 -0.43,1.804 -0.43,3.015 -2.277,-2.503 -4.995,-3.712 -8.152,-3.63 -2.892,0.041 -5.291,1.004 -7.199,2.891 -1.907,1.887 -2.799,4.173 -2.676,6.86 0.103,3.61 1.61,6.383 4.522,8.321 2.912,1.938 6.891,2.907 11.936,2.907 l 3.383,-0.061 0.37,1.876 0.123,1.631 c -0.082,1.865 -1.015,2.83 -2.8,2.891 -2.214,0.041 -3.579,-1.18 -4.091,-3.661 l -10.151,-0.03 c 0.102,2.235 0.83,4.178 2.184,5.829 1.353,1.651 3.194,2.923 5.522,3.814 2.327,0.893 4.803,1.308 7.428,1.246 2.523,-0.061 4.732,-0.589 6.629,-1.584 1.897,-0.995 3.318,-2.379 4.261,-4.153 0.943,-1.774 1.302,-3.819 1.077,-6.137 L 15.227,-0.338 15.073,-2.246 c -0.082,-1.518 0.113,-2.81 0.585,-3.876 l -0.031,-0.584 z"
            style="fill:#3448cc;fill-opacity:1;fill-rule:nonzero;stroke:none" id="path36" />
        </g>
        <g id="g38" transform="translate(287.5239,132.1564)">
          <path
            d="M 0,0 C -1.086,0.164 -2.133,0.266 -3.137,0.308 -6.172,0.389 -8.49,-0.657 -10.089,-2.83 l -3.753,-21.072 h -10.121 l 5.783,33.284 9.444,0.031 -0.769,-4.368 c 2.173,3.363 4.737,5.045 7.691,5.045 0.839,0 1.886,-0.144 3.136,-0.431 z"
            style="fill:#3448cc;fill-opacity:1;fill-rule:nonzero;stroke:none" id="path40" />
        </g>
        <g id="g42" transform="translate(327.5762,120.3747)">
          <path
            d="m 0,0 c 0.451,2.317 -0.8,4.111 -3.753,5.383 l -5.045,2.092 c -7.075,3.179 -10.438,7.506 -10.09,12.982 0.144,2.501 1.005,4.731 2.584,6.69 1.579,1.958 3.763,3.481 6.553,4.568 2.788,1.087 5.834,1.61 9.136,1.569 4.429,-0.082 7.993,-1.374 10.689,-3.876 2.697,-2.502 4.025,-5.855 3.984,-10.059 H 3.599 c 0.062,1.723 -0.303,3.102 -1.092,4.137 -0.789,1.036 -2.087,1.574 -3.891,1.616 -1.764,0.041 -3.322,-0.37 -4.676,-1.231 -1.353,-0.861 -2.154,-2.02 -2.4,-3.476 -0.39,-2.051 1.134,-3.733 4.568,-5.045 3.435,-1.312 5.932,-2.441 7.491,-3.384 4.901,-2.933 7.199,-6.89 6.89,-11.874 -0.164,-2.584 -0.994,-4.85 -2.491,-6.798 -1.497,-1.949 -3.573,-3.456 -6.229,-4.522 -2.657,-1.066 -5.635,-1.579 -8.936,-1.538 -2.421,0.041 -4.666,0.42 -6.737,1.138 -2.072,0.718 -3.845,1.764 -5.322,3.138 -2.995,2.768 -4.429,6.408 -4.306,10.92 l 10.551,-0.031 c -0.123,-2.296 0.317,-4.035 1.322,-5.213 1.005,-1.18 2.697,-1.769 5.076,-1.769 1.764,0 3.234,0.404 4.414,1.215 C -0.989,-2.559 -0.267,-1.436 0,0"
            style="fill:#191919;fill-opacity:1;fill-rule:nonzero;stroke:none" id="path44" />
        </g>
        <g id="g46" transform="translate(352.9561,124.3591)">
          <path
            d="m 0,0 -0.093,-1.812 c -0.287,-4.565 1.108,-6.89 4.184,-6.971 3.978,-0.123 6.285,3.101 6.921,9.674 l 0.123,2.795 C 11.176,5.528 10.832,6.997 10.104,8.092 9.377,9.188 8.305,9.755 6.891,9.797 5.023,9.858 3.491,9.096 2.291,7.509 1.092,5.922 0.327,3.419 0,0 m 7.536,17.795 c 2.974,-0.042 5.547,-0.784 7.722,-2.231 2.173,-1.445 3.767,-3.46 4.783,-6.044 1.015,-2.584 1.379,-5.456 1.092,-8.613 L 21.071,0.23 C 20.497,-4.876 18.6,-8.999 15.381,-12.136 12.16,-15.274 8.182,-16.801 3.445,-16.72 c -2.953,0.042 -5.507,0.774 -7.66,2.199 -2.153,1.426 -3.748,3.42 -4.783,5.984 -1.036,2.563 -1.41,5.414 -1.123,8.552 0.513,5.455 2.384,9.802 5.614,13.043 3.23,3.24 7.244,4.818 12.043,4.737"
            style="fill:#191919;fill-opacity:1;fill-rule:nonzero;stroke:none" id="path48" />
        </g>
        <g id="g50" transform="translate(386.3926,108.2546)">
          <path d="m 0,0 h -10.151 l 8.182,47.25 H 8.183 Z"
            style="fill:#191919;fill-opacity:1;fill-rule:nonzero;stroke:none" id="path52" />
        </g>
        <g id="g54" transform="translate(413.4014,111.8845)">
          <path
            d="m 0,0 c -2.481,-2.933 -5.476,-4.357 -8.982,-4.276 -3.261,0.042 -5.717,1.179 -7.368,3.415 -1.651,2.235 -2.292,5.229 -1.922,8.982 l 3.598,21.533 H -4.553 L -8.213,7.972 C -8.275,7.376 -8.275,6.833 -8.213,6.34 -8.07,4.656 -7.075,3.784 -5.229,3.722 -3.097,3.64 -1.282,4.481 0.215,6.248 L 4.338,29.654 H 14.52 L 8.736,-3.63 h -9.413 z"
            style="fill:#191919;fill-opacity:1;fill-rule:nonzero;stroke:none" id="path56" />
        </g>
        <g id="g58" transform="translate(446.5635,149.8137)">
          <path
            d="m 0,0 -1.445,-8.275 h 5.321 l -1.261,-7.198 h -5.322 l -2.584,-15.289 c -0.144,-1.046 -0.077,-1.835 0.2,-2.368 0.277,-0.534 0.969,-0.821 2.076,-0.862 0.431,-0.02 1.313,0.031 2.646,0.154 l -0.738,-7.506 c -1.703,-0.553 -3.518,-0.81 -5.446,-0.769 -3.136,0.042 -5.485,0.964 -7.044,2.769 -1.558,1.804 -2.194,4.255 -1.907,7.352 l 2.707,16.519 h -4.122 l 1.231,7.198 h 4.122 L -10.121,0 Z"
            style="fill:#191919;fill-opacity:1;fill-rule:nonzero;stroke:none" id="path60" />
        </g>
        <g id="g62" transform="translate(456.0693,149.9367)">
          <path
            d="m 0,0 c -0.042,1.497 0.486,2.748 1.584,3.753 1.097,1.004 2.425,1.507 3.983,1.507 1.579,0 2.897,-0.451 3.954,-1.353 1.055,-0.903 1.604,-2.082 1.645,-3.538 0.041,-1.518 -0.482,-2.774 -1.568,-3.768 -1.088,-0.995 -2.421,-1.492 -4,-1.492 -1.537,0 -2.845,0.446 -3.922,1.338 C 0.6,-2.661 0.04,-1.477 0,0 M 3.476,-41.682 H -6.676 l 5.783,33.284 H 9.259 Z"
            style="fill:#191919;fill-opacity:1;fill-rule:nonzero;stroke:none" id="path64" />
        </g>
        <g id="g66" transform="translate(477.8486,124.3591)">
          <path
            d="m 0,0 -0.093,-1.812 c -0.287,-4.565 1.108,-6.89 4.184,-6.971 3.978,-0.123 6.285,3.101 6.921,9.674 l 0.123,2.795 C 11.176,5.528 10.832,6.997 10.104,8.092 9.377,9.188 8.305,9.755 6.891,9.797 5.023,9.858 3.491,9.096 2.291,7.509 1.092,5.922 0.327,3.419 0,0 m 7.536,17.795 c 2.974,-0.042 5.547,-0.784 7.722,-2.231 2.173,-1.445 3.767,-3.46 4.783,-6.044 1.015,-2.584 1.379,-5.456 1.092,-8.613 L 21.071,0.23 C 20.497,-4.876 18.6,-8.999 15.381,-12.136 12.16,-15.274 8.182,-16.801 3.445,-16.72 c -2.953,0.042 -5.507,0.774 -7.66,2.199 -2.153,1.426 -3.748,3.42 -4.783,5.984 -1.036,2.563 -1.41,5.414 -1.123,8.552 0.513,5.455 2.384,9.802 5.614,13.043 3.23,3.24 7.244,4.818 12.043,4.737"
            style="fill:#191919;fill-opacity:1;fill-rule:nonzero;stroke:none" id="path68" />
        </g>
        <g id="g70" transform="translate(515.6221,141.5695)">
          <path
            d="m 0,0 -0.707,-3.999 c 2.666,3.158 5.875,4.696 9.629,4.614 3.076,-0.061 5.367,-1.205 6.875,-3.43 1.507,-2.225 2.056,-5.409 1.645,-9.551 L 13.936,-33.315 H 3.784 l 3.538,21.035 c 0.081,0.719 0.102,1.376 0.061,1.971 -0.144,1.951 -1.291,2.926 -3.445,2.926 -1.784,0.041 -3.415,-0.75 -4.891,-2.371 l -4.152,-23.561 h -10.122 l 5.784,33.284 z"
            style="fill:#191919;fill-opacity:1;fill-rule:nonzero;stroke:none" id="path72" />
        </g>
      </g>
    </g>
  </g>
</svg>
