<svg width="165" height="24" viewBox="0 0 165 24" xmlns="http://www.w3.org/2000/svg" xmlns:xlink="http://www.w3.org/1999/xlink">
    <defs>
        <path id="nosyxd901a" d="M0 0h19.828v11.33H0z"/>
        <path id="h6i1wrvuyc" d="M0 0h22.66v17.704H0z"/>
        <path id="1gnffdp19e" d="M0 0h12.747v12.039H0z"/>
    </defs>
    <g fill="none" fill-rule="evenodd">
        <g>
            <mask id="yrgzl35aqb" fill="#fff">
                <use xlink:href="#nosyxd901a"/>
            </mask>
            <path d="M.529 7.117 7.583 11.2a.971.971 0 0 0 .974 0l.589-.342.292-.17a.5.5 0 0 0 0-.865L3.173 6.198l.159-.092L9.357 2.62a3.734 3.734 0 0 1 3.733 0l4.665 2.7.004.003c.297.16.655.16.947-.01l.874-.507a.5.5 0 0 0 .023-.85c-.351-.23-.656-.4-.818-.488L14.149.783a5.856 5.856 0 0 0-5.85 0L1.151 4.918l-.601.348c-.27.157-.47.418-.53.726-.088.454.123.9.509 1.124" fill="#2E49D3" mask="url(#yrgzl35aqb)"/>
        </g>
        <g transform="translate(0 5.665)">
            <mask id="56jytp087d" fill="#fff">
                <use xlink:href="#h6i1wrvuyc"/>
            </mask>
            <path d="M22.149.284a.505.505 0 0 0-.705-.217l-.986.56a.49.49 0 0 0-.208.624c.192.442.299.97.28 1.617V9.78l-7.32-4.157a1.525 1.525 0 0 0-1.505.002l-.65.371a1.474 1.474 0 0 0-.75 1.279v8.186c.694.2 1.435.2 2.128 0V7.599l7.03 3.991-6.216 3.53a3.834 3.834 0 0 1-3.754 0l-7.13-4.048a.625.625 0 0 1-.266-.282.499.499 0 0 0-.433-.295l-1.138-.056a.498.498 0 0 0-.526.516 5.077 5.077 0 0 0 .113.87c.064.273.237.52.503.672l.992.562 6.82 3.872a5.957 5.957 0 0 0 2.941.773 5.957 5.957 0 0 0 2.941-.773l7.812-4.434.042-.026c.139-.087.26-.208.348-.358.095-.162.14-.338.142-.512h.004V2.896c.03-1.047-.175-1.904-.51-2.612" fill="#2E49D3" mask="url(#56jytp087d)"/>
        </g>
        <path fill="#3448CC" d="m38.192 3.54 4.373 11.59h.045l2.299-11.59h3.246L44.75 19.829h-3.539L36.794 8.4h-.045L34.45 19.828H31.16L34.54 3.541zM55.561 11.949a2.373 2.373 0 0 0-.308-.832 1.62 1.62 0 0 0-.664-.597c-.29-.148-.672-.223-1.144-.223-.458 0-.863.07-1.213.21-.352.141-.657.329-.916.563-.26.235-.477.508-.652.82a6.305 6.305 0 0 0-.447.984h5.425c0-.312-.027-.62-.08-.925m-5.711 3.245v.492c0 .703.214 1.274.64 1.71.428.438 1.084.657 1.97.657.32 0 .605-.05.857-.152s.473-.23.664-.388c.191-.155.359-.335.503-.538.145-.203.279-.399.401-.586h3.25a8.605 8.605 0 0 1-.915 1.804 5.17 5.17 0 0 1-1.26 1.3 5.131 5.131 0 0 1-1.704.786c-.649.171-1.4.257-2.255.257-.793 0-1.514-.109-2.162-.328a4.306 4.306 0 0 1-1.66-.996 4.523 4.523 0 0 1-1.064-1.651c-.252-.656-.378-1.422-.378-2.296 0-.97.153-1.902.458-2.8a7.779 7.779 0 0 1 1.293-2.39 6.237 6.237 0 0 1 2.048-1.664c.81-.414 1.717-.621 2.725-.621.823 0 1.575.11 2.254.328a4.6 4.6 0 0 1 1.74.996c.48.445.854 1 1.12 1.663.268.664.4 1.434.4 2.308 0 .594-.06 1.227-.182 1.898h-8.72a1.1 1.1 0 0 0-.023.211M65.825 14.878a27.86 27.86 0 0 1-1.419.129 6.564 6.564 0 0 0-.892.152c-.29.07-.546.176-.767.316-.22.14-.4.332-.538.574-.137.243-.205.551-.205.926 0 .453.179.793.538 1.02.358.225.774.339 1.247.339.503 0 .926-.082 1.27-.246.343-.164.633-.375.87-.633.236-.257.422-.55.56-.879.138-.327.251-.656.344-.984l.32-1.171c-.413.25-.855.403-1.328.457m-4.851-4.991c.35-.507.778-.918 1.281-1.23a5.257 5.257 0 0 1 1.694-.668 9.353 9.353 0 0 1 1.945-.2c.534 0 1.09.04 1.67.118a5.57 5.57 0 0 1 1.603.457 3.13 3.13 0 0 1 1.201.96c.313.414.461.965.446 1.652 0 .579-.084 1.258-.251 2.04l-1.053 4.873a4.177 4.177 0 0 0-.126.808c-.023.32-.034.598-.034.832 0 .203.038.438.114.703h-3.25v-1.195a3.943 3.943 0 0 1-1.624 1.136 5.59 5.59 0 0 1-1.992.363c-.64 0-1.201-.086-1.682-.257a3.55 3.55 0 0 1-1.2-.691 2.676 2.676 0 0 1-.71-1.008 3.238 3.238 0 0 1-.23-1.207c0-1.171.393-2.108 1.18-2.811.785-.703 1.895-1.14 3.329-1.313a51.579 51.579 0 0 1 1.99-.21 8.027 8.027 0 0 0 1.409-.223c.373-.101.652-.25.835-.445.183-.195.275-.489.275-.88 0-.31-.07-.562-.207-.749a1.51 1.51 0 0 0-.514-.445 2.166 2.166 0 0 0-.664-.222 4.155 4.155 0 0 0-.675-.059c-.58 0-1.098.144-1.556.433-.458.29-.74.738-.847 1.348h-3.044c.106-.765.336-1.402.687-1.91M76.207 8.107l-.468 2.109.044.045c.357-.816.895-1.432 1.616-1.848a4.625 4.625 0 0 1 2.35-.623c.327 0 .654.023.98.068l-.645 3.128-.669-.135a3.35 3.35 0 0 0-.668-.069c-.61 0-1.125.106-1.548.318a3.16 3.16 0 0 0-1.07.861c-.29.363-.52.775-.69 1.236a9.996 9.996 0 0 0-.413 1.44l-1.069 5.191h-3.142L73.2 8.108h3.008z"/>
        <path d="M87.828 16.225c.165.387.405.694.72.921.316.228.691.392 1.126.49.436.099.909.148 1.419.148.36 0 .72-.046 1.08-.137a3.43 3.43 0 0 0 .98-.409c.293-.182.533-.417.72-.706.188-.288.283-.637.283-1.046 0-.394-.12-.717-.361-.967a3.148 3.148 0 0 0-.934-.649 8.196 8.196 0 0 0-1.306-.477c-.488-.137-.98-.28-1.475-.433a12.3 12.3 0 0 1-1.486-.546 5.06 5.06 0 0 1-1.295-.819 3.75 3.75 0 0 1-.923-1.229c-.233-.484-.35-1.076-.35-1.774 0-.91.188-1.684.563-2.32a4.745 4.745 0 0 1 1.464-1.56c.6-.4 1.28-.697 2.038-.887a9.48 9.48 0 0 1 2.308-.284c.826 0 1.602.095 2.33.284.728.19 1.367.497 1.915.922.547.425.983.966 1.305 1.627.323.66.484 1.46.484 2.4h-3.355c.015-.455-.048-.838-.191-1.15a1.958 1.958 0 0 0-.608-.761 2.468 2.468 0 0 0-.935-.421 5.084 5.084 0 0 0-1.148-.125c-.33 0-.664.034-1.002.102a2.909 2.909 0 0 0-.912.341c-.27.16-.488.368-.653.626-.165.258-.247.576-.247.955 0 .395.146.725.439.99.293.266.645.486 1.058.66.413.175.837.311 1.272.41l1.058.239c.63.167 1.209.36 1.734.58.526.22.98.505 1.363.853.383.349.679.773.89 1.274.21.501.315 1.115.315 1.843 0 .971-.2 1.798-.597 2.48a5.053 5.053 0 0 1-1.531 1.66 6.362 6.362 0 0 1-2.106.922c-.78.19-1.554.284-2.32.284-2.251 0-3.929-.462-5.032-1.387-1.103-.925-1.655-2.381-1.655-4.369h3.355c-.03.577.038 1.058.203 1.445M101.244 16.365c.102.329.256.618.462.868.205.25.458.449.758.597.3.15.647.223 1.043.223.631 0 1.173-.168 1.623-.504a4.13 4.13 0 0 0 1.113-1.265 6.187 6.187 0 0 0 .652-1.652 7.172 7.172 0 0 0 .212-1.663c0-.813-.185-1.461-.556-1.945-.371-.484-1.007-.727-1.907-.727-.617 0-1.15.168-1.6.504-.45.336-.817.754-1.101 1.254a6.265 6.265 0 0 0-.64 1.628 7.019 7.019 0 0 0-.213 1.652c0 .359.05.703.154 1.03m-3.033-3.947a7.215 7.215 0 0 1 1.398-2.402 6.58 6.58 0 0 1 2.215-1.629c.87-.398 1.848-.597 2.938-.597.837 0 1.607.105 2.31.316a5.058 5.058 0 0 1 1.813.95c.505.42.896.952 1.172 1.592.276.641.415 1.399.415 2.273a9.008 9.008 0 0 1-.486 2.988 7.065 7.065 0 0 1-1.41 2.425 6.537 6.537 0 0 1-2.238 1.617c-.877.39-1.876.585-2.997.585-1.706 0-3.068-.433-4.087-1.3-1.02-.867-1.529-2.168-1.529-3.901 0-1.031.162-2.004.486-2.917M116.137 3.54l-3.306 16.288h-3.067l3.284-16.287zM122.641 20.241l.364-1.635h-.046c-1.043 1.287-2.412 1.93-4.105 1.93-2.283 0-3.425-1.045-3.425-3.134 0-.121.011-.276.034-.466.023-.19.053-.382.09-.58.038-.195.076-.382.114-.555.038-.174.072-.315.103-.421l1.451-6.882h3.22l-1.428 6.882c-.03.091-.057.201-.08.33l-.068.397a4.97 4.97 0 0 0-.057.704c0 .349.163.636.488.863.325.227.676.341 1.055.341.484 0 .91-.094 1.281-.284.37-.189.688-.435.953-.738s.483-.651.658-1.045c.173-.394.306-.795.397-1.203l1.315-6.247h3.221l-2.45 11.743h-3.085zM136.674 7.836l-.524 2.17h-2.404l-1.262 5.87a3.29 3.29 0 0 0-.07.332 1.525 1.525 0 0 0-.025.217c0 .213.036.377.107.49a.742.742 0 0 0 .274.264c.11.06.234.095.369.103a10.632 10.632 0 0 0 1.607-.057l-.572 2.49a53.2 53.2 0 0 1-1.047.08c-.35.022-.706.033-1.07.033-.398 0-.79-.034-1.18-.103a3.242 3.242 0 0 1-1.046-.365 1.982 1.982 0 0 1-.739-.72c-.182-.304-.266-.7-.25-1.187 0-.152.016-.324.048-.514s.072-.392.12-.606l1.38-6.327h-2.214l.524-2.17h2.166l.761-3.587h3.38l-.762 3.587h2.429zM137.259 6.21l.564-2.67h3.1l-.564 2.67h-3.1zm2.754 1.825-2.386 11.793h-3.078l2.363-11.793h3.1zM143.733 16.365c.102.329.256.618.462.868.205.25.458.449.758.597.3.15.647.223 1.043.223.631 0 1.173-.168 1.623-.504a4.13 4.13 0 0 0 1.114-1.265 6.187 6.187 0 0 0 .651-1.652 7.172 7.172 0 0 0 .213-1.663c0-.813-.186-1.461-.557-1.945-.37-.484-1.007-.727-1.907-.727-.616 0-1.15.168-1.6.504-.45.336-.817.754-1.1 1.254a6.265 6.265 0 0 0-.64 1.628 7.019 7.019 0 0 0-.214 1.652c0 .359.051.703.154 1.03m-3.032-3.947a7.215 7.215 0 0 1 1.397-2.402 6.58 6.58 0 0 1 2.216-1.629c.868-.398 1.847-.597 2.937-.597.837 0 1.608.105 2.31.316a5.058 5.058 0 0 1 1.813.95c.505.42.896.952 1.173 1.592.276.641.414 1.399.414 2.273a9.008 9.008 0 0 1-.486 2.988 7.065 7.065 0 0 1-1.41 2.425 6.537 6.537 0 0 1-2.238 1.617c-.877.39-1.876.585-2.997.585-1.706 0-3.068-.433-4.087-1.3-1.019-.867-1.528-2.168-1.528-3.901 0-1.031.162-2.004.486-2.917" fill="#191919"/>
        <g transform="translate(152.253 7.79)">
            <mask id="go1rs05fwf" fill="#fff">
                <use xlink:href="#1gnffdp19e"/>
            </mask>
            <path d="M5.521.318 5.158 1.95h.046C6.248.65 7.619 0 9.316 0c2.287 0 3.43 1.05 3.43 3.151 0 .122-.015.277-.045.465a20.087 20.087 0 0 1-.216 1.134 6.171 6.171 0 0 0-.08.419l-1.453 6.87H7.726l1.43-6.87c.03-.181.072-.423.125-.726.054-.301.08-.535.08-.702 0-.348-.163-.635-.488-.861a1.812 1.812 0 0 0-1.057-.34c-.485 0-.913.094-1.284.283a3.15 3.15 0 0 0-.954.737c-.265.302-.485.65-.658 1.042a6.368 6.368 0 0 0-.398 1.202l-1.318 6.235H0L2.431.318h3.09z" fill="#191919" mask="url(#go1rs05fwf)"/>
        </g>
    </g>
</svg>
