<svg width="75" height="37" viewBox="0 0 75 37" xmlns="http://www.w3.org/2000/svg" xmlns:xlink="http://www.w3.org/1999/xlink">
    <defs>
        <path id="a" d="M0 0h6.723v7.542H0z"/>
        <path id="c" d="M0 0h7.088v7.542H0z"/>
        <path id="e" d="M0 0h4.682v10.709H0z"/>
        <path id="g" d="M0 0h7.235v7.365H0z"/>
        <path id="i" d="M0 0h6.899v9.673H0z"/>
        <path id="k" d="M0 0h7.088v7.542H0z"/>
    </defs>
    <g fill="none" fill-rule="evenodd">
        <path fill="#3448CC" d="M13.909 0v11.618L6.034 0H0v21h6.077V9.468L13.91 21H20V0zM34.725 11.666c-.115-1.138-.418-1.952-.91-2.444-.494-.492-1.142-.737-1.946-.737-.928 0-1.668.371-2.223 1.113-.355.463-.578 1.153-.675 2.068h5.754zm5.94 2.82H28.957c.105.944.359 1.648.76 2.11.564.665 1.302.998 2.21.998.574 0 1.119-.144 1.636-.433.316-.184.656-.507 1.019-.97l5.753.535c-.88 1.544-1.941 2.649-3.185 3.32-1.245.669-3.027 1.004-5.352 1.004-2.02 0-3.605-.287-4.764-.86-1.158-.574-2.115-1.484-2.877-2.734-.759-1.248-1.14-2.714-1.14-4.402 0-2.4.762-4.342 2.287-5.827C26.832 5.74 28.938 5 31.626 5c2.18 0 3.903.333 5.165.998a6.716 6.716 0 0 1 2.884 2.892c.66 1.262.99 2.906.99 4.93v.666zM53.736 13.415c-.804.29-1.64.546-2.511.767-1.187.318-1.937.632-2.252.94-.326.318-.488.68-.488 1.084 0 .463.16.84.481 1.134.32.295.792.442 1.413.442.65 0 1.256-.159 1.814-.477.561-.318.957-.706 1.193-1.163.233-.459.35-1.053.35-1.787v-.94zm-5.065-3.094-5.581-.593c.21-.983.515-1.757.912-2.32.395-.565.967-1.053 1.714-1.468.534-.3 1.272-.531 2.209-.694A17.748 17.748 0 0 1 50.967 5c1.75 0 3.157.1 4.218.298 1.062.196 1.947.609 2.655 1.235.498.433.89 1.049 1.176 1.842.287.798.43 1.556.43 2.278v6.782c0 .723.046 1.29.138 1.698.09.411.289.934.594 1.57h-5.48c-.22-.395-.363-.696-.431-.905-.068-.207-.134-.53-.2-.975-.766.742-1.526 1.273-2.282 1.59-1.033.424-2.235.637-3.601.637-1.819 0-3.198-.424-4.14-1.273-.942-.849-1.413-1.894-1.413-3.137 0-1.167.34-2.125 1.019-2.877.678-.753 1.932-1.312 3.758-1.678 2.191-.444 3.613-.754 4.262-.934.65-.177 1.338-.41 2.066-.7 0-.723-.148-1.229-.445-1.518-.297-.289-.817-.434-1.564-.434-.957 0-1.674.155-2.152.463-.373.242-.674.694-.904 1.36zM63.005 5.347h5.467v2.516c.527-1.088 1.07-1.839 1.627-2.247.562-.411 1.253-.616 2.074-.616.86 0 1.804.27 2.827.81l-1.808 4.193c-.689-.289-1.234-.434-1.636-.434-.764 0-1.358.319-1.779.954-.602.897-.904 2.575-.904 5.032v5.148h-5.868V5.347z"/>
        <g transform="translate(0 29.458)">
            <mask id="b" fill="#fff">
                <use xlink:href="#a"/>
            </mask>
            <path d="m0 6.226.66-.724c.691.783 1.676 1.152 2.703 1.152.997 0 1.73-.354 1.73-1.136 0-.697-.688-.963-1.878-1.362-1.482-.504-2.143-1.11-2.143-2.116C1.072.666 2.291 0 3.744 0c1.364 0 2.377.562 2.98 1.167l-.632.711C5.505 1.359 4.684.886 3.626.886c-.924 0-1.481.385-1.481 1.022 0 .665.615.96 1.76 1.36 1.336.444 2.26.93 2.26 2.1 0 1.554-1.336 2.174-3.008 2.174C1.923 7.542.69 7.026 0 6.226" fill="#A8A8A8" mask="url(#b)"/>
        </g>
        <g transform="translate(7.208 29.458)">
            <mask id="d" fill="#fff">
                <use xlink:href="#c"/>
            </mask>
            <path d="M5.945 3.224c0-1.392-.72-2.263-1.924-2.263-1.512 0-2.876 1.494-2.876 3.357 0 1.39.719 2.262 1.921 2.262 1.512 0 2.879-1.493 2.879-3.356M0 4.391C0 1.878 1.922 0 4.109 0c1.863 0 2.979 1.286 2.979 3.15 0 2.514-1.922 4.392-4.094 4.392C1.115 7.542 0 6.256 0 4.391" fill="#A8A8A8" mask="url(#d)"/>
        </g>
        <g transform="translate(15.94 26.291)">
            <mask id="f" fill="#fff">
                <use xlink:href="#e"/>
            </mask>
            <path d="M.793 8.785c0-.235.028-.486.101-.782L2.364.919H0L.19 0H3.67L2.01 8.046c-.044.208-.075.43-.075.65 0 .742.427 1.05 1.072 1.05.47 0 .882-.116 1.394-.384l.28.873a4.382 4.382 0 0 1-1.982.474c-1.1 0-1.907-.651-1.907-1.924" fill="#A8A8A8" mask="url(#f)"/>
        </g>
        <g transform="translate(22.028 29.635)">
            <mask id="h" fill="#fff">
                <use xlink:href="#g"/>
            </mask>
            <path d="M0 5.576c0-.415.045-.785.133-1.182L1.013 0h1.13L1.29 4.275c-.073.37-.13.666-.13.99 0 .71.396 1.11 1.13 1.11.954 0 1.908-.652 2.875-1.73L6.09 0h1.145L5.812 7.188h-.94l.19-1.465h-.057c-.851.845-1.908 1.643-3.17 1.643S0 6.656 0 5.576" fill="#A8A8A8" mask="url(#h)"/>
        </g>
        <g transform="translate(30.359 27.327)">
            <mask id="j" fill="#fff">
                <use xlink:href="#i"/>
            </mask>
            <path d="M1.248 7.618c0-.312.045-.592.118-.932l.703-3.462H0l.163-.843 2.142-.073L2.921 0h.939l-.47 2.308H6.9l-.19.916H3.185l-.72 3.49a2.94 2.94 0 0 0-.073.653c0 .916.513 1.344 1.321 1.344.704 0 1.337-.22 1.849-.516l.367.828c-.616.384-1.512.65-2.51.65-1.497 0-2.172-.828-2.172-2.055" fill="#A8A8A8" mask="url(#j)"/>
        </g>
        <path d="M40.794 27.312c0-.547.47-1.02 1.015-1.02.512 0 .85.295.85.8 0 .576-.47 1.02-1.026 1.02-.47 0-.839-.282-.839-.8m-1.012 7.883c0-.25.045-.5.102-.797l.867-3.847H38.14l.19-.916h3.728L41 34.515a1.868 1.868 0 0 0-.058.46c0 .754.44 1.063 1.085 1.063.442 0 .852-.147 1.366-.37l.264.859c-.603.28-1.175.473-1.952.473-1.145 0-1.923-.62-1.923-1.805" fill="#A8A8A8"/>
        <g transform="translate(44.626 29.458)">
            <mask id="l" fill="#fff">
                <use xlink:href="#k"/>
            </mask>
            <path d="M5.945 3.224c0-1.392-.72-2.263-1.924-2.263-1.512 0-2.876 1.494-2.876 3.357 0 1.39.719 2.262 1.921 2.262 1.512 0 2.879-1.493 2.879-3.356M0 4.391C0 1.878 1.922 0 4.109 0c1.863 0 2.979 1.286 2.979 3.15 0 2.514-1.922 4.392-4.094 4.392C1.115 7.542 0 6.256 0 4.391" fill="#A8A8A8" mask="url(#l)"/>
        </g>
        <path d="M53.226 29.635h.939l-.191 1.463h.06c.867-.856 1.921-1.64 3.2-1.64 1.261 0 1.833.709 1.833 1.789 0 .415-.057.785-.13 1.182l-.882 4.394h-1.13l.851-4.275c.073-.37.133-.68.133-1.005 0-.71-.396-1.096-1.13-1.096-.954 0-1.939.638-2.906 1.731l-.926 4.645h-1.13l1.409-7.188z" fill="#A8A8A8"/>
    </g>
</svg>
