<svg width="28" height="28" viewBox="0 0 28 28" xmlns="http://www.w3.org/2000/svg">
    <path d="M12.906 18.92v-3.827H9.078a1.094 1.094 0 1 1 0-2.188h3.828V9.077a1.094 1.094 0 0 1 2.188 0v3.828h3.828a1.094 1.094 0 0 1 0 2.188h-3.828v3.828a1.094 1.094 0 1 1-2.188 0zM23.9 4.1A13.909 13.909 0 0 0 14 0c-3.74 0-7.255 1.456-9.9 4.1A13.909 13.909 0 0 0 0 14c0 3.74 1.456 7.255 4.1 9.9A13.909 13.909 0 0 0 14 28c2.56 0 5.065-.698 7.244-2.018a1.094 1.094 0 1 0-1.133-1.87 11.792 11.792 0 0 1-6.111 1.7C7.487 25.813 2.187 20.514 2.187 14c0-6.513 5.3-11.813 11.813-11.813 6.513 0 11.813 5.3 11.813 11.813 0 2.33-.693 4.596-2.003 6.556a1.094 1.094 0 1 0 1.818 1.216A13.947 13.947 0 0 0 28 14c0-3.74-1.456-7.255-4.1-9.9z" fill="#FFF" fill-rule="nonzero"/>
</svg>
