<svg xmlns="http://www.w3.org/2000/svg" width="13" height="16">
    <path fill="#FFF" fill-rule="evenodd" d="M11.839 5.537v8.635A1.834 1.834 0 0 1 10.003 16H2.997a1.834 1.834 0 0 1-1.836-1.828V5.537A1.83 1.83 0 0 1 0 3.839v-.094c0-1.008.824-1.828 1.836-1.828h2.503a2.176 2.176 0 0 1 4.322 0h2.503c1.012 0 1.836.82 1.836 1.828v.094a1.83 1.83 0 0 1-1.161 1.698zm-9.807 8.635c0 .53.433.961.965.961h7.006a.964.964 0 0 0 .965-.961V5.667H2.032v8.505zM6.5.867c-.634 0-1.164.452-1.281 1.05h2.562A1.305 1.305 0 0 0 6.5.867zm5.629 2.878a.964.964 0 0 0-.965-.961H1.836a.964.964 0 0 0-.965.961v.094c0 .53.433.961.965.961h9.327a.964.964 0 0 0 .966-.961v-.094zM8.835 14.024a.434.434 0 0 1-.436-.433v-4.88a.435.435 0 0 1 .871 0v4.88a.434.434 0 0 1-.435.433zm-2.335 0a.434.434 0 0 1-.436-.433v-4.88a.435.435 0 1 1 .872 0v4.88a.434.434 0 0 1-.436.433zm-2.335 0a.434.434 0 0 1-.435-.433v-4.88a.434.434 0 0 1 .871 0v4.88a.434.434 0 0 1-.436.433z"/>
</svg>
