<svg xmlns="http://www.w3.org/2000/svg" width="14" height="14">
    <path fill="#FFF" fill-rule="evenodd" d="M13.647 14h-3.141a.353.353 0 1 1 0-.705H12.8L9.231 9.733a.347.347 0 0 1-.103-.249.352.352 0 0 1 .6-.25l3.566 3.565v-2.291a.353.353 0 1 1 .706 0v3.139a.353.353 0 0 1-.353.353zm0-10.155a.353.353 0 0 1-.353-.353V1.201L9.728 4.766a.352.352 0 1 1-.497-.499L12.8.705h-2.294a.352.352 0 1 1 0-.705h3.141c.195 0 .353.158.353.353v3.139a.353.353 0 0 1-.353.353zM1.2 13.295h2.294a.352.352 0 1 1 0 .705H.353A.353.353 0 0 1 0 13.647v-3.139a.353.353 0 1 1 .706 0v2.291l3.566-3.565a.352.352 0 1 1 .497.499L1.2 13.295zm3.072-8.529L.706 1.201v2.291a.353.353 0 1 1-.706 0V.353C0 .158.158 0 .353 0h3.141a.353.353 0 1 1 0 .705H1.2l3.569 3.562a.347.347 0 0 1 .103.249.352.352 0 0 1-.6.25z"/>
</svg>
