<svg xmlns="http://www.w3.org/2000/svg" width="14" height="14">
    <path fill="#FFF" fill-rule="evenodd" d="M13.648 14h-6.41a.351.351 0 1 1 0-.704h6.064V.701H.704v6.023c0 .192-.16.349-.352.349a.349.349 0 0 1-.349-.349V.349C.003.157.157 0 .352 0h13.296c.195 0 .352.157.352.352v13.296a.351.351 0 0 1-.352.352zM.003 8.773c0-.195.154-.352.349-.352h4.874c.194 0 .352.157.352.352v4.872a.352.352 0 0 1-.352.352H.349A.35.35 0 0 1 0 13.645h.003V8.773zm.698 4.523h4.176V9.122H.701v4.174zm5.927-9.408c.195 0 .352.158.352.352v2.286l3.966-3.968a.349.349 0 0 1 .249-.103c.092 0 .181.034.249.103a.348.348 0 0 1 0 .495L7.475 7.019h2.287a.352.352 0 1 1 0 .703H6.628a.351.351 0 0 1-.352-.351V4.24c0-.194.157-.352.352-.352z"/>
</svg>
