<svg xmlns="http://www.w3.org/2000/svg" width="14" height="14">
    <path fill="#FFF" fill-rule="evenodd" d="M13.964 6.822l-.1-.151-1.867-1.867a.467.467 0 0 0-.66.66l1.07 1.069h-4.94v-4.94l1.069 1.07a.467.467 0 0 0 .66-.66L7.329.136 7.325.133 7.178.036 7 0h-.002l-.176.036-.147.097-.005.003-1.867 1.867a.467.467 0 0 0 .66.66l1.07-1.07v4.94h-4.94l1.07-1.069a.467.467 0 0 0-.66-.66L.136 6.671l-.003.004-.097.147L0 7v.002l.036.176.097.146.003.006 1.867 1.866a.467.467 0 0 0 .66-.66l-1.07-1.069h4.94v4.94l-1.069-1.07a.467.467 0 0 0-.66.66l1.867 1.867.151.101.176.035H7l.178-.036.151-.1 1.867-1.867a.467.467 0 0 0-.66-.66l-1.069 1.07v-4.94h4.94l-1.07 1.069a.469.469 0 0 0 0 .66.469.469 0 0 0 .66 0l1.867-1.867.101-.151.035-.176V7l-.036-.178z"/>
</svg>
